<svg xmlns="http://www.w3.org/2000/svg" xmlns:xlink="http://www.w3.org/1999/xlink" preserveAspectRatio="xMidYMid meet" version="1.0" viewBox="386.1 706.1 3500.4 2815.9" zoomAndPan="magnify" style="fill: rgb(86, 105, 204);" original_string_length="3262"><g id="__id163_sfa93bwrem"><path d="M2636.99,2090.78c381.76,0,692.34-310.58,692.34-692.34c0-381.76-310.58-692.34-692.34-692.34 c-381.76,0-692.34,310.58-692.34,692.34C1944.65,1780.2,2255.23,2090.78,2636.99,2090.78z M2059.77,1398.44 c0-318.28,258.94-577.22,577.22-577.22s577.22,258.94,577.22,577.22c0,318.28-258.94,577.22-577.22,577.22 S2059.77,1716.72,2059.77,1398.44z" style="fill: inherit;"/></g><g id="__id164_sfa93bwrem"><path d="M2467.88,1715.52c29.9,29.2,69.74,49.75,113.54,58.81l-0.45,61.17c-0.23,30.88,24.71,56.19,55.59,56.42l0.42,0 c30.65,0,55.77-24.94,56.01-55.59l0.46-62.2c43.64-9.2,83.32-29.82,113.05-59.01c34.52-33.89,53.54-77.28,53.54-122.18v-24.73 c0-59.69-33.6-116.13-89.89-150.98l-199.7-123.63c-23.41-14.5-36.84-34.81-36.84-55.74v-38.66c0-18.81,10.42-36.9,29.33-50.93 c20.61-15.29,48.27-23.72,77.88-23.72s57.26,8.42,77.88,23.72c18.91,14.03,29.33,32.12,29.33,50.93v43.63 c0,30.88,25.13,56.01,56.01,56.01c30.89,0,56.01-25.13,56.01-56.01v-43.63c0-85.3-67.72-159.09-163.22-180.47v-57.78 c0-30.88-25.13-56.01-56.01-56.01c-30.88,0-56.01,25.13-56.01,56.01v57.78c-95.5,21.38-163.22,95.16-163.22,180.47v38.66 c0,59.69,33.61,116.13,89.9,150.98l199.7,123.63c23.41,14.5,36.84,34.81,36.84,55.73v24.73c0,18.81-10.42,36.9-29.33,50.93 c-20.61,15.29-48.27,23.72-77.88,23.72h-7.62c-29.61,0-57.26-8.42-77.88-23.72c-18.91-14.03-29.33-32.12-29.33-50.93v-24.04 c0-30.88-25.13-56.01-56.01-56.01c-30.88,0-56.01,25.13-56.01,56.01v24.04C2413.95,1638.04,2433.1,1681.57,2467.88,1715.52z" style="fill: inherit;"/></g><g id="__id165_sfa93bwrem"><path d="M3804.88,2257.15c-78.08-86.77-202.81-95.42-290.52-20.3l-514.25,415.97c0.23-5.09,0.3-10.19,0.22-15.32 c-2.05-124.03-99.44-224.93-217.12-224.93h-571c-32.91,0-63.95-19.01-83.05-50.84c-4.12-6.88-9.81-12.58-16.11-17.55 c-233.77-184.43-547.95-208.6-816.95-89.03l-99.44,44.2H996.9v-91.2c0-32.73-26.54-59.27-59.27-59.27H445.4 c-32.73,0-59.27,26.54-59.27,59.27v1096.29c0,32.73,26.54,59.27,59.27,59.27h492.22c32.73,0,59.27-26.54,59.27-59.27v-94.07h203.17 l703.02,223.22c159.44,58.95,293.11,88.43,426.76,88.43c107.14,0,214.28-18.94,334.7-56.82c11.07-3.48,22.25-7.13,33.55-10.93 c24.39-9.37,48.08-20.52,70.91-33.26c18.81-10.5,36.62-22.71,53.32-36.33l982.33-801.43c3.24-2.65,6.2-5.63,8.81-8.9 C3886.53,2483.03,3882.75,2343.69,3804.88,2257.15z M878.35,3245.18H504.67v-977.75h373.68V3245.18z M3724.31,2495.82l-916.2,747.48 c-80.02,65.28-173.82,111.62-274.38,135.15c-199.17,46.59-363.37,27.76-590.79-56.49c-0.88-0.33-1.77-0.63-2.66-0.91l-713.11-226.42 c-5.8-1.84-11.85-2.78-17.94-2.78H996.9v-673.94h212.35c8.29,0,16.5-1.74,24.07-5.11l110.94-49.31 c226.64-100.75,483.89-74.32,690.35,70.37c41.36,61.15,106.86,97.27,177.6,97.27h571c53.37,0,97.6,48.6,98.59,108.34 c0.54,32.99-11.37,64.32-32.67,85.98c-10.46,10.64-22.68,18.33-35.71,22.67c-16.87,2.73-34,4.11-51.29,4.11h-635.15 c-32.58,0-59.73,25.91-60.15,58.49c-0.43,33.09,26.27,60.05,59.27,60.05h662.18c17.81,0,35.34-2.38,52.24-6.99 c73.9-13.34,143.68-45.6,205-95.2l544.09-440.11c0.5-0.41,0.99-0.82,1.48-1.24c38.25-33.07,91.11-29.18,125.68,9.23 C3754.98,2378.92,3757.93,2449.2,3724.31,2495.82z" style="fill: inherit;"/></g></svg>