<svg xmlns="http://www.w3.org/2000/svg" xmlns:xlink="http://www.w3.org/1999/xlink" preserveAspectRatio="xMidYMid meet" version="1.0" viewBox="18.7 38.4 82.6 43.4" zoomAndPan="magnify" style="fill: rgb(0, 0, 0);" original_string_length="719"><g id="__id179_szfootr1uh"><path d="M99.7,39.9l-23.5-1.4c-1.4-0.1-2.2,1.5-1.3,2.6l5.9,7.3c0.6,0.7,0.4,1.7-0.2,2.2L63.3,64.4 c-0.7,0.5-1.6,0.5-2.2-0.2l-7.3-8.4l-2.2-2.5c-0.6-0.7-1.6-0.7-2.2-0.2L47.1,55L19.4,78.8c-0.6,0.5-0.7,1.4-0.3,2.1l0,0 c0.5,0.7,1.4,0.9,2.1,0.5l26.6-15.2c0.7-0.4,1.5-0.2,2,0.3l8,9.1l2.2,2.5c0.6,0.6,1.5,0.7,2.2,0.2l2.6-2.1l22.1-17.9 c0.7-0.6,1.7-0.4,2.2,0.2l5.9,7.3c0.9,1.1,2.6,0.6,2.8-0.8l3.5-23.3C101.3,40.8,100.6,39.9,99.7,39.9z" style="fill: rgb(85, 92, 179);"/></g></svg>